<?xml version="1.0" encoding="UTF-8" standalone="no"?>
<!DOCTYPE svg PUBLIC "-//W3C//DTD SVG 1.1//EN" "http://www.w3.org/Graphics/SVG/1.1/DTD/svg11.dtd">
<svg version="1.1" xmlns="http://www.w3.org/2000/svg" xmlns:xlink="http://www.w3.org/1999/xlink" preserveAspectRatio="xMidYMid meet" viewBox="0 0 640 640" width="640" height="640"><defs><path d="M0 879L879 879L879 0L0 0L0 879" id="b4FjTsbf48"></path><path d="M664.91 879L591.68 879L112.96 391.47L664.91 879ZM341.99 513.19L701.19 879L756.13 879L341.99 513.19ZM879 703.22L661.82 511.39L879 732.56L879 703.22ZM879 507.07L879 527.87L725.03 371.07L879 507.07L879 507.07" id="a4etJpI91x"></path><path d="M566.48 486.07L423.57 486.07L416.85 497.72L557.05 511.33L566.48 486.07" id="b4Bu7vOuN"></path><path d="M531.84 460.45L596.87 420.49L627.47 451.1L615.15 446.85L582.1 514.82L531.84 460.45" id="bVan7jeO"></path><path d="M356.74 363.48L260.31 369.11L81.25 369.11L110.76 386.14L287.39 407.48L403.35 439L356.74 363.48" id="d1npnHnO7G"></path><path d="M521.02 424.92C439.07 342.97 393.53 297.44 384.43 288.33C367.01 270.92 349.75 258.41 327.78 247.29C322.76 244.75 282.63 224.43 277.61 221.89C277.07 221.62 276.52 221.36 275.98 221.11C266.01 216.54 255.04 217.92 246.52 224.83C237.99 231.73 234.36 242.17 236.76 252.88C236.78 252.97 236.95 253.75 236.98 253.84C240.86 271.18 248.51 285.09 261.07 297.64C273.44 310.01 372.4 408.98 384.77 421.35C428.48 465.05 473.59 494.73 531.03 517.55C532.44 518.11 543.68 522.58 545.09 523.14C553.8 526.6 562.66 527.25 571.19 525.13C576.19 523.89 579.94 520.57 581.78 515.75C583.61 510.93 583.03 505.96 580.12 501.7C577.98 498.58 560.9 473.57 558.76 470.44C547.05 453.3 535.7 439.61 521.02 424.92" id="a1FzXLooNB"></path><path d="M242.83 271.64C247.13 281.2 253.11 289.69 261.07 297.64C273.44 310.01 372.4 408.98 384.77 421.35C428.48 465.05 473.59 494.73 531.03 517.55C532.44 518.11 543.68 522.58 545.09 523.14C553.8 526.6 562.66 527.25 571.19 525.13C576.19 523.89 579.94 520.57 581.78 515.75C581.59 515.76 580.09 515.81 579.9 515.81C567.96 516.19 557.56 512.36 548.73 504.32C522.38 480.31 311.58 288.3 285.23 264.3C276.17 256.05 264.74 252.94 252.75 255.46C252.55 255.51 250.97 255.84 250.77 255.88C247.47 256.57 244.91 258.46 243.26 261.4C241.61 264.33 241.35 267.51 242.48 270.68C242.51 270.74 242.62 271.06 242.83 271.64" id="ad0OkLkwa"></path><path d="M245.51 380.88C259.44 390.59 270.49 407.15 271.39 416.77C272.29 426.39 264.25 435.5 253.44 437.12C242.63 438.73 223.9 431.08 209.4 419.53C208.5 409.91 234.69 382.5 245.51 380.88" id="e5z2TGgbxH"></path><path d="M223.86 375.23C238.74 373.01 251.82 381.94 253.06 395.19C254.3 408.44 243.24 420.98 228.35 423.2C213.46 425.43 200.39 416.5 199.14 403.25C197.91 390 208.97 377.46 223.86 375.23" id="c23O5wNrZg"></path><path d="M224.42 381.29C235.55 379.63 245.32 386.3 246.25 396.21C247.17 406.11 238.91 415.48 227.78 417.14C216.65 418.81 206.88 412.13 205.96 402.23C205.03 392.33 213.3 382.96 224.42 381.29" id="beNC8jEm1"></path><path d="M423.7 360.08L557.53 369.11L736.59 369.11L707.08 386.14L530.46 407.48L414.49 439L371.88 365.89L423.7 360.08" id="d3AbprirZ0"></path><path d="M582.01 381.71C594.83 394.5 603.35 413.96 602.5 424.24C601.65 434.51 591.51 442.58 579.85 442.26C568.19 441.94 549.94 430.4 536.86 415.56C537.72 405.29 570.35 381.38 582.01 381.71" id="b2orDBBxXP"></path><path d="M560.33 371.73C576.38 372.17 588.45 384 587.27 398.14C586.1 412.29 572.14 423.4 556.09 422.96C540.03 422.51 527.97 410.69 529.14 396.54C530.31 382.4 544.27 371.28 560.33 371.73" id="bHm7jpNPN"></path><path d="M559.79 378.2C571.79 378.53 580.81 387.37 579.93 397.94C579.06 408.52 568.62 416.82 556.62 416.48C544.62 416.16 535.6 407.32 536.48 396.74C537.36 386.17 547.79 377.87 559.79 378.2" id="gQkqiZvuh"></path><path d="M569.44 486.07L712.35 486.07L719.07 497.72L578.87 511.33L569.44 486.07" id="a9e2fai4Sh"></path><path d="M879 628.62C879 778.85 879 862.31 879 879C586 879 293 879 0 879C0 862.64 0 731.72 0 715.35C0 669.55 27.48 632.43 59.77 632.43C92.06 632.43 117.19 666.39 119.38 709.42C133.32 698.59 151.31 692.4 166.51 692.4C181.71 692.4 192.45 696.12 203.96 702.85C213.39 668.58 241.09 644.22 265.31 644.22C289.53 644.22 303.99 657.18 316.03 677.49C322.52 649.96 342.56 630.07 363.18 630.07C383.81 630.07 399.1 645.27 407.32 667.48C418.05 661.61 413.13 658.38 441.95 658.38C470.77 658.38 525.27 702.88 534.28 762.17C548.68 733.8 585.64 715.27 599.38 715.27C613.12 715.27 600.51 715.29 601.07 715.3C603.13 678.18 626.51 648.94 652.77 648.94C679.04 648.94 699.05 673.99 703.68 707.14C716.34 694.28 732.99 686.68 748.83 686.68C764.68 686.68 777.46 692.52 789.16 702.62C789.16 702.03 789.15 724.12 789.15 700.84C789.15 677.55 827.14 617.6 849.15 617.6C871.15 617.6 870.21 621.61 879 628.62" id="b2dke3EEjK"></path><path d="M879 673.16L879 879L0 879C0 721.14 0 633.45 0 615.91C40.36 621.99 71.78 669.45 71.78 727.1C71.78 738.32 70.59 749.16 68.37 759.38C97.68 762.36 122.97 785.47 137.08 818.8C143.58 766.71 176.29 727.1 215.66 727.1C252.98 727.1 284.31 762.68 293.01 810.75C302.61 803.97 313.49 800.14 325.01 800.14C339 800.14 352.05 805.79 363.03 815.53C365.77 766.06 395.55 727.1 431.89 727.1C470.03 727.1 500.95 770.02 500.95 822.97C500.95 828.53 500.6 833.97 499.95 839.27C512.69 815.52 533.06 800.14 556.03 800.14C573.06 800.14 588.66 808.6 600.78 822.65C606.48 760.81 644.53 713.01 690.62 713.01C727.55 713.01 759.31 743.69 773.42 787.69C780.16 785.39 787.2 784.16 794.46 784.16C804.69 784.16 814.52 786.6 823.65 791.06C823.37 787.29 823.23 783.47 823.23 779.6C823.23 729.84 846.64 687.68 879 673.16" id="a4qWD2yyF"></path></defs><g><g><g><use xlink:href="#b4FjTsbf48" opacity="1" fill="#4ba5ce" fill-opacity="1"></use><g><use xlink:href="#b4FjTsbf48" opacity="1" fill-opacity="0" stroke="#000000" stroke-width="1" stroke-opacity="0"></use></g></g><g><use xlink:href="#a4etJpI91x" opacity="1" fill="#5ab7dd" fill-opacity="1"></use><g><use xlink:href="#a4etJpI91x" opacity="1" fill-opacity="0" stroke="#000000" stroke-width="1" stroke-opacity="0"></use></g></g><g><use xlink:href="#b4Bu7vOuN" opacity="1" fill="#ffffff" fill-opacity="1"></use><g><use xlink:href="#b4Bu7vOuN" opacity="1" fill-opacity="0" stroke="#000000" stroke-width="1" stroke-opacity="0"></use></g></g><g><use xlink:href="#bVan7jeO" opacity="1" fill="#ffffff" fill-opacity="1"></use><g><use xlink:href="#bVan7jeO" opacity="1" fill-opacity="0" stroke="#000000" stroke-width="1" stroke-opacity="0"></use></g></g><g><use xlink:href="#d1npnHnO7G" opacity="1" fill="#9ad8e8" fill-opacity="1"></use><g><use xlink:href="#d1npnHnO7G" opacity="1" fill-opacity="0" stroke="#000000" stroke-width="1" stroke-opacity="0"></use></g></g><g><use xlink:href="#a1FzXLooNB" opacity="1" fill="#ffffff" fill-opacity="1"></use><g><use xlink:href="#a1FzXLooNB" opacity="1" fill-opacity="0" stroke="#000000" stroke-width="1" stroke-opacity="0"></use></g></g><g><use xlink:href="#ad0OkLkwa" opacity="1" fill="#b9e8f5" fill-opacity="1"></use><g><use xlink:href="#ad0OkLkwa" opacity="1" fill-opacity="0" stroke="#000000" stroke-width="1" stroke-opacity="0"></use></g></g><g><use xlink:href="#e5z2TGgbxH" opacity="1" fill="#a2dfef" fill-opacity="1"></use><g><use xlink:href="#e5z2TGgbxH" opacity="1" fill-opacity="0" stroke="#000000" stroke-width="1" stroke-opacity="0"></use></g></g><g><use xlink:href="#c23O5wNrZg" opacity="1" fill="#ffffff" fill-opacity="1"></use><g><use xlink:href="#c23O5wNrZg" opacity="1" fill-opacity="0" stroke="#000000" stroke-width="1" stroke-opacity="0"></use></g></g><g><use xlink:href="#beNC8jEm1" opacity="1" fill="#5397b2" fill-opacity="1"></use><g><use xlink:href="#beNC8jEm1" opacity="1" fill-opacity="0" stroke="#000000" stroke-width="1" stroke-opacity="0"></use></g></g><g><use xlink:href="#d3AbprirZ0" opacity="1" fill="#b9e8f5" fill-opacity="1"></use><g><use xlink:href="#d3AbprirZ0" opacity="1" fill-opacity="0" stroke="#000000" stroke-width="1" stroke-opacity="0"></use></g></g><g><use xlink:href="#b2orDBBxXP" opacity="1" fill="#a2dfef" fill-opacity="1"></use><g><use xlink:href="#b2orDBBxXP" opacity="1" fill-opacity="0" stroke="#000000" stroke-width="1" stroke-opacity="0"></use></g></g><g><use xlink:href="#bHm7jpNPN" opacity="1" fill="#ffffff" fill-opacity="1"></use><g><use xlink:href="#bHm7jpNPN" opacity="1" fill-opacity="0" stroke="#000000" stroke-width="1" stroke-opacity="0"></use></g></g><g><use xlink:href="#gQkqiZvuh" opacity="1" fill="#5397b2" fill-opacity="1"></use><g><use xlink:href="#gQkqiZvuh" opacity="1" fill-opacity="0" stroke="#000000" stroke-width="1" stroke-opacity="0"></use></g></g><g><use xlink:href="#a9e2fai4Sh" opacity="1" fill="#ffffff" fill-opacity="1"></use><g><use xlink:href="#a9e2fai4Sh" opacity="1" fill-opacity="0" stroke="#000000" stroke-width="1" stroke-opacity="0"></use></g></g><g><use xlink:href="#b2dke3EEjK" opacity="1" fill="#7ad4f2" fill-opacity="1"></use><g><use xlink:href="#b2dke3EEjK" opacity="1" fill-opacity="0" stroke="#000000" stroke-width="1" stroke-opacity="0"></use></g></g><g><use xlink:href="#a4qWD2yyF" opacity="1" fill="#a2e1f7" fill-opacity="1"></use><g><use xlink:href="#a4qWD2yyF" opacity="1" fill-opacity="0" stroke="#000000" stroke-width="1" stroke-opacity="0"></use></g></g></g></g></svg>